<svg width="100%" height="100%" viewBox="0 0 100 100" xmlns="http://www.w3.org/2000/svg">
  <defs>
    <pattern id="pattern" patternUnits="userSpaceOnUse" width="100" height="100">
      <path d="M 50,0 C 77.614,0 100,22.386 100,50 C 100,77.614 77.614,100 50,100 C 22.386,100 0,77.614 0,50 C 0,22.386 22.386,0 50,0 Z" 
            stroke="none" fill="#000" opacity="0.05"/>
      <path d="M 50,25 C 64.911,25 77.5,37.589 77.5,52.5 C 77.5,67.411 64.911,80 50,80 C 35.089,80 22.5,67.411 22.5,52.5 C 22.5,37.589 35.089,25 50,25 Z" 
            stroke="none" fill="#000" opacity="0.05"/>
      <path d="M 50,25 C 64.911,25 77.5,12.411 77.5,2.5 C 77.5,12.411 64.911,25 50,25 Z" 
            stroke="none" fill="#000" opacity="0.05" transform="rotate(90 50 50)"/>
      <path d="M 50,25 C 64.911,25 77.5,12.411 77.5,2.5 C 77.5,12.411 64.911,25 50,25 Z" 
            stroke="none" fill="#000" opacity="0.05" transform="rotate(180 50 50)"/>
      <path d="M 50,25 C 64.911,25 77.5,12.411 77.5,2.5 C 77.5,12.411 64.911,25 50,25 Z" 
            stroke="none" fill="#000" opacity="0.05" transform="rotate(270 50 50)"/>
    </pattern>
  </defs>
  <rect width="100%" height="100%" fill="url(#pattern)" />
</svg>
